<?xml version="1.0" encoding="utf-8"?>
<!-- Generator: Adobe Illustrator 24.0.0, SVG Export Plug-In . SVG Version: 6.00 Build 0)  -->
<svg version="1.1" id="Layer_1" xmlns="http://www.w3.org/2000/svg" xmlns:xlink="http://www.w3.org/1999/xlink" x="0px" y="0px"
	 viewBox="0 0 80 80" style="enable-background:new 0 0 80 80;" xml:space="preserve">
<style type="text/css">
	.st0{fill:#6E6E6E;}
	.st1{fill:#3D3D3D;}
</style>
<g>
	<g>
		<path d="M47.1,5.1c-14.2,0-25.7,11.5-25.7,25.7S33,56.5,47.1,56.5S72.8,45,72.8,30.8S61.3,5.1,47.1,5.1z M47.1,48.3
			c-9.7,0-17.5-7.8-17.5-17.5s7.8-17.5,17.5-17.5s17.5,7.8,17.5,17.5S56.8,48.3,47.1,48.3z"/>
		<g>
			
				<rect x="37.6" y="21.4" transform="matrix(0.7071 -0.7071 0.7071 0.7071 -8.0232 42.3037)" class="st0" width="18.9" height="18.9"/>
			<path d="M47.1,18.9l12,12l-12,12l-12-12L47.1,18.9 M47.1,16L32.3,30.8l14.8,14.8l14.8-14.8L47.1,16L47.1,16z"/>
		</g>
	</g>
	<g>
		<g>
			<path class="st1" d="M24.5,73.9c-5.3,0-10.6-1.4-15.2-4.2l-0.7-0.4l16.5-31.8c3-4.7,8.1-7.5,13.7-7.5c3.1,0,6.2,0.9,8.8,2.6
				c7.4,4.8,9.6,14.7,4.9,22.2l-1.4,2.7C46.1,67.6,35.8,73.9,24.5,73.9C24.5,73.9,24.5,73.9,24.5,73.9z"/>
			<path d="M38.8,31c2.9,0,5.8,0.8,8.3,2.4c7,4.5,9,13.8,4.6,20.8l-0.1,0.1l0,0.1L50.3,57c-4.9,9.8-14.8,15.9-25.8,15.9
				c-5.1,0-10.1-1.4-14.6-4l16-30.8C28.8,33.6,33.6,31,38.8,31 M38.8,29c-5.7,0-11.3,2.8-14.6,8l-17,32.6l1.5,0.9
				c4.9,2.9,10.4,4.3,15.7,4.3c11.3,0,22.2-6.2,27.6-17l1.3-2.6c5-7.9,2.7-18.4-5.2-23.5C45.3,29.9,42,29,38.8,29L38.8,29z"/>
		</g>
	</g>
</g>
</svg>
