<?xml version="1.0" encoding="utf-8"?>
<!-- Generator: Adobe Illustrator 24.0.0, SVG Export Plug-In . SVG Version: 6.00 Build 0)  -->
<svg version="1.1" id="Layer_1" xmlns="http://www.w3.org/2000/svg" xmlns:xlink="http://www.w3.org/1999/xlink" x="0px" y="0px"
	 viewBox="0 0 200 100" style="enable-background:new 0 0 200 100;" xml:space="preserve">
<style type="text/css">
	.st0{fill:#6E6E6E;stroke:#000000;stroke-width:2;stroke-miterlimit:10;}
	.st1{fill:#3D3D3D;stroke:#000000;stroke-width:2;stroke-miterlimit:10;}
</style>
<g>
	<g>
		<polygon class="st0" points="80.5,26.9 77.1,52.8 92.8,39.2 		"/>
		<path class="st1" d="M35.3,20.6L7,69.9l2.3,1.5C32.5,86.5,63.6,78.7,77,54.6l2.2-3.9c8.3-11.9,5.4-28.3-6.5-36.7l0,0
			C60.6,5.5,43.8,8.4,35.3,20.6z"/>
	</g>
	<g>
		<path d="M150.7,42.1h-6c-1.1,0-1.8,0.5-1.9,1.4l-5.6,30.7L131,54.4c-0.1-0.4-0.3-0.7-0.6-1.1c-0.3-0.4-0.8-0.6-1.6-0.6h-3.7
			c-0.7,0-1.2,0.2-1.5,0.6s-0.6,0.8-0.7,1.1l-6.1,19.9l-5.6-30.8c-0.1-0.9-0.8-1.4-1.9-1.4h-6c-0.4,0-0.7,0.1-1,0.4s-0.4,0.6-0.4,1
			c0,0,0,0.1,0,0.2c0,0.1,0,0.2,0,0.3l8.1,43.6c0.1,0.6,0.4,1.1,0.8,1.5c0.4,0.4,0.9,0.6,1.6,0.6h4.6c0.7,0,1.3-0.2,1.6-0.5
			c0.4-0.4,0.6-0.7,0.8-1.2l7.6-22.7l7.6,22.7c0.1,0.4,0.4,0.8,0.8,1.2c0.4,0.4,0.9,0.5,1.6,0.5h4.6c0.7,0,1.2-0.2,1.6-0.6
			c0.4-0.4,0.7-0.9,0.7-1.5l8.1-43.6c0-0.1,0.1-0.2,0.1-0.3c0-0.1,0-0.2,0-0.2c0-0.4-0.1-0.7-0.4-1C151.4,42.2,151,42.1,150.7,42.1z
			"/>
		<path d="M192.4,82.1c-0.3-0.3-0.7-0.5-1.2-0.5h-21.6V43.7c0-0.5-0.2-0.8-0.5-1.2c-0.3-0.3-0.7-0.5-1.2-0.5h-6.3
			c-0.5,0-0.8,0.2-1.2,0.5c-0.3,0.3-0.5,0.7-0.5,1.2v44.3c0,0.5,0.2,0.8,0.5,1.2c0.3,0.3,0.7,0.5,1.2,0.5h29.5
			c0.5,0,0.9-0.2,1.2-0.5c0.3-0.3,0.5-0.7,0.5-1.2v-4.8C192.8,82.8,192.7,82.4,192.4,82.1z"/>
	</g>
	<g>
		<ellipse transform="matrix(0.3827 -0.9239 0.9239 0.3827 -16.4108 106.0309)" cx="71.1" cy="65.3" rx="7.7" ry="7.7"/>
		<path d="M71.1,39.6c-14.2,0-25.7,11.5-25.7,25.7S57,91,71.1,91s25.7-11.5,25.7-25.7S85.3,39.6,71.1,39.6z M71.1,82.8
			c-9.7,0-17.5-7.8-17.5-17.5s7.8-17.5,17.5-17.5c9.7,0,17.5,7.8,17.5,17.5S80.8,82.8,71.1,82.8z"/>
	</g>
</g>
</svg>
